<svg xmlns="http://www.w3.org/2000/svg" width="90" height="90" viewBox="0 0 24 24">
  <circle cx="12" cy="12" r="12" fill="#181717"/>
  <path fill="white" d="M12 2C6.48 2 2 6.58 2 12.26c0 4.5 2.87 8.32 6.84 9.67.5.1.68-.22.68-.48v-1.7c-2.78.62-3.37-1.36-3.37-1.36-.45-1.18-1.1-1.5-1.1-1.5-.9-.64.07-.63.07-.63 1 .07 1.53 1.05 1.53 1.05.88 1.56 2.3 1.1 2.86.84.09-.65.34-1.1.62-1.35-2.22-.26-4.55-1.13-4.55-5 0-1.1.38-2 1-2.7-.1-.26-.44-1.3.1-2.7 0 0 .83-.27 2.74 1.02a9.2 9.2 0 015 0c1.9-1.29 2.73-1.02 2.73-1.02.55 1.4.21 2.44.1 2.7.63.7 1 1.6 1 2.7 0 3.9-2.33 4.74-4.56 5 .36.3.67.9.67 1.84v2.73c0 .26.18.58.68.48A10.26 10.26 0 0022 12.26C22 6.58 17.52 2 12 2z"/>
</svg>
