<svg xmlns="http://www.w3.org/2000/svg" width="90" height="90" viewBox="0 0 24 24">
  <circle cx="12" cy="12" r="12" fill="#25D366"/>
  <path fill="white" d="M16.6 13.8c-.2-.1-1.3-.6-1.5-.7-.2-.1-.4-.1-.6.1-.2.3-.7.8-.8.9-.1.1-.3.1-.5 0s-1-.4-1.9-1.3c-.7-.7-1.3-1.6-1.4-1.8-.1-.2 0-.4.1-.5.1-.1.2-.3.3-.4.1-.1.1-.2.2-.4.1-.1 0-.3 0-.4-.1-.1-.6-1.4-.8-1.9-.2-.5-.4-.4-.6-.4h-.5c-.2 0-.5.1-.7.3-.2.2-.9.9-.9 2.1s.9 2.4 1 2.6c.1.1 1.8 2.8 4.3 3.9 1.5.6 2 .7 2.7.6.4-.1 1.3-.5 1.5-1s.2-.9.2-1c0-.1-.1-.1-.3-.2z"/>
</svg>
